<?xml version="1.0" encoding="UTF-8" standalone="no"?>
<svg
   xmlns:dc="http://purl.org/dc/elements/1.1/"
   xmlns:cc="http://creativecommons.org/ns#"
   xmlns:rdf="http://www.w3.org/1999/02/22-rdf-syntax-ns#"
   xmlns:svg="http://www.w3.org/2000/svg"
   xmlns="http://www.w3.org/2000/svg"
   xmlns:sodipodi="http://sodipodi.sourceforge.net/DTD/sodipodi-0.dtd"
   xmlns:inkscape="http://www.inkscape.org/namespaces/inkscape"
   sodipodi:docname="instagram.svg"
   inkscape:version="1.0 (4035a4fb49, 2020-05-01)"
   id="svg8"
   version="1.1"
   viewBox="0 0 110 110"
   height="110mm"
   width="110mm">
  <defs
     id="defs2">
    <clipPath
       clipPathUnits="userSpaceOnUse"
       id="clipPath849">
      <path
         d="M 0,1049.703 H 952.822 V 0 H 0 Z"
         id="path847" />
    </clipPath>
    <clipPath
       clipPathUnits="userSpaceOnUse"
       id="clipPath945">
      <path
         d="m 858.674,281.625 c -11.77,-6.339 -21.252,-16.212 -27.113,-28.225 v 0 c -15.464,-31.701 -2.3,-69.934 29.399,-85.398 v 0 c 4.709,-2.297 9.684,-4.006 14.81,-5.088 v 0 c 34.512,-7.284 68.392,14.787 75.675,49.298 v 0 c 0.911,4.316 1.367,8.685 1.377,13.041 v 0 0.289 c -0.023,10.456 -2.614,20.819 -7.637,30.144 v 0 c -11.538,21.419 -33.547,33.589 -56.282,33.59 v 0 c -10.225,0 -20.596,-2.461 -30.229,-7.651"
         id="path943" />
    </clipPath>
    <linearGradient
       x1="0"
       y1="0"
       x2="1"
       y2="0"
       gradientUnits="userSpaceOnUse"
       gradientTransform="matrix(162.2332,37.541283,37.541283,-162.2332,804.77435,205.91994)"
       spreadMethod="pad"
       id="linearGradient957">
      <stop
         style="stop-opacity:1;stop-color:#ffc730"
         offset="0"
         id="stop951" />
      <stop
         style="stop-opacity:1;stop-color:#e24035"
         offset="0.683673"
         id="stop953" />
      <stop
         style="stop-opacity:1;stop-color:#dd287c"
         offset="1"
         id="stop955" />
    </linearGradient>
    <clipPath
       clipPathUnits="userSpaceOnUse"
       id="clipPath967">
      <path
         d="M 0,1049.703 H 952.822 V 0 H 0 Z"
         id="path965" />
    </clipPath>
    <clipPath
       clipPathUnits="userSpaceOnUse"
       id="clipPath1079">
      <path
         d="m 226.062,978.62 c 0,-5.653 4.585,-10.238 10.24,-10.238 v 0 c 5.655,0 10.24,4.585 10.24,10.238 v 0 c 0,5.655 -4.585,10.241 -10.24,10.241 v 0 c -5.655,0 -10.24,-4.586 -10.24,-10.241"
         id="path1077" />
    </clipPath>
    <linearGradient
       x1="0"
       y1="0"
       x2="1"
       y2="0"
       gradientUnits="userSpaceOnUse"
       gradientTransform="matrix(-266.6795,-248.34521,-248.34521,266.6795,288.38843,1027.1265)"
       spreadMethod="pad"
       id="linearGradient1091">
      <stop
         style="stop-opacity:1;stop-color:#9c27b0"
         offset="0"
         id="stop1085" />
      <stop
         style="stop-opacity:1;stop-color:#f34337"
         offset="0.5"
         id="stop1087" />
      <stop
         style="stop-opacity:1;stop-color:#ffc107"
         offset="1"
         id="stop1089" />
    </linearGradient>
    <clipPath
       clipPathUnits="userSpaceOnUse"
       id="clipPath1101">
      <path
         d="m 489.715,1049.703 c -46.05,0 -83.381,-37.331 -83.381,-83.381 v 0 -140.626 c 0,-46.049 37.331,-83.381 83.381,-83.381 v 0 h 140.626 c 46.05,0 83.381,37.332 83.381,83.381 v 0 140.626 c 0,46.05 -37.331,83.381 -83.381,83.381 v 0 z"
         id="path1099" />
    </clipPath>
    <linearGradient
       x1="0"
       y1="0"
       x2="1"
       y2="0"
       gradientUnits="userSpaceOnUse"
       gradientTransform="matrix(-269.86679,-246.39981,-246.39981,269.86679,694.961,1019.2092)"
       spreadMethod="pad"
       id="linearGradient1113">
      <stop
         style="stop-opacity:1;stop-color:#9c27b0"
         offset="0"
         id="stop1107" />
      <stop
         style="stop-opacity:1;stop-color:#f34337"
         offset="0.5"
         id="stop1109" />
      <stop
         style="stop-opacity:1;stop-color:#ffc107"
         offset="1"
         id="stop1111" />
    </linearGradient>
    <clipPath
       clipPathUnits="userSpaceOnUse"
       id="clipPath1123">
      <path
         d="M 0,1049.703 H 952.822 V 0 H 0 Z"
         id="path1121" />
    </clipPath>
  </defs>
  <sodipodi:namedview
     inkscape:snap-page="false"
     inkscape:window-maximized="1"
     inkscape:window-y="-8"
     inkscape:window-x="-8"
     inkscape:window-height="1002"
     inkscape:window-width="1920"
     showgrid="false"
     inkscape:document-rotation="0"
     inkscape:current-layer="g841"
     inkscape:document-units="mm"
     inkscape:cy="561.25984"
     inkscape:cx="396.85039"
     inkscape:zoom="0.35"
     inkscape:pageshadow="2"
     inkscape:pageopacity="0.0"
     borderopacity="1.0"
     bordercolor="#666666"
     pagecolor="#ffffff"
     id="base" />
  <metadata
     id="metadata5">
    <rdf:RDF>
      <cc:Work
         rdf:about="">
        <dc:format>image/svg+xml</dc:format>
        <dc:type
           rdf:resource="http://purl.org/dc/dcmitype/StillImage" />
        <dc:title></dc:title>
      </cc:Work>
    </rdf:RDF>
  </metadata>
  <g
     id="layer1"
     inkscape:groupmode="layer"
     inkscape:label="Layer 1">
    <g
       id="g841"
       inkscape:label="vectorstock_21718006"
       transform="matrix(0.35277777,0,0,-0.35277777,-213.42436,393.7988)">
      <g
         transform="translate(201.42856,63.642859)"
         id="g1095">
        <g
           id="g1097"
           clip-path="url(#clipPath1101)">
          <g
             id="g1103">
            <g
               id="g1105">
              <path
                 d="m 489.715,1049.703 c -46.05,0 -83.381,-37.331 -83.381,-83.381 v 0 -140.626 c 0,-46.049 37.331,-83.381 83.381,-83.381 v 0 h 140.626 c 46.05,0 83.381,37.332 83.381,83.381 v 0 140.626 c 0,46.05 -37.331,83.381 -83.381,83.381 v 0 z"
                 style="fill:url(#linearGradient1113);stroke:none"
                 id="path1115" />
            </g>
          </g>
        </g>
      </g>
      <g
         transform="translate(201.42856,63.642859)"
         id="g1117">
        <g
           id="g1119"
           clip-path="url(#clipPath1123)">
          <g
             id="g1125"
             transform="translate(648.4062,855.2182)">
            <path
               d="m 0,0 c 0,-26.241 -21.347,-47.587 -47.588,-47.587 h -81.582 c -26.24,0 -47.59,21.346 -47.59,47.587 v 81.582 c 0,26.241 21.35,47.59 47.59,47.59 h 81.582 C -21.347,129.172 0,107.823 0,81.582 Z m -47.588,149.566 h -81.582 c -37.54,0 -67.984,-30.444 -67.984,-67.984 V 0 c 0,-37.54 30.444,-67.984 67.984,-67.984 h 81.582 c 37.54,0 67.984,30.444 67.984,67.984 v 81.582 c 0,37.54 -30.444,67.984 -67.984,67.984"
               style="fill:#ffffff;fill-opacity:1;fill-rule:nonzero;stroke:none"
               id="path1127" />
          </g>
          <g
             id="g1129"
             transform="translate(560.0273,862.017)">
            <path
               d="m 0,0 c -18.737,0 -33.992,15.256 -33.992,33.992 0,18.752 15.255,33.992 33.992,33.992 18.737,0 33.992,-15.24 33.992,-33.992 C 33.992,15.256 18.737,0 0,0 m 0,88.381 c -30.035,0 -54.389,-24.353 -54.389,-54.389 0,-30.035 24.354,-54.386 54.389,-54.386 30.036,0 54.387,24.351 54.387,54.386 0,30.036 -24.351,54.389 -54.387,54.389"
               style="fill:#ffffff;fill-opacity:1;fill-rule:nonzero;stroke:none"
               id="path1131" />
          </g>
          <g
             id="g1133"
             transform="translate(625.7402,954.477)">
            <path
               d="m 0,0 c 0,-4.002 -3.245,-7.247 -7.247,-7.247 -4.002,0 -7.247,3.245 -7.247,7.247 0,4.002 3.245,7.247 7.247,7.247 C -3.245,7.247 0,4.002 0,0"
               style="fill:#ffffff;fill-opacity:1;fill-rule:nonzero;stroke:none"
               id="path1135" />
          </g>
        </g>
      </g>
    </g>
  </g>
</svg>
